<svg width="88" height="69" viewBox="0 0 88 69" fill="none" xmlns="http://www.w3.org/2000/svg">
<path d="M36.7109 48.8594V58H8.07812V48.8594H36.7109ZM11.8672 1.125V58H0.148438V1.125H11.8672ZM71.75 49.5625L87.1406 61.75L79.7578 68.1562L64.6016 55.9688L71.75 49.5625ZM87.5312 28.2344V30.9297C87.5312 35.2526 86.9453 39.1328 85.7734 42.5703C84.6276 46.0078 82.974 48.9375 80.8125 51.3594C78.651 53.7552 76.099 55.5911 73.1562 56.8672C70.2135 58.1432 66.9453 58.7812 63.3516 58.7812C59.7839 58.7812 56.5156 58.1432 53.5469 56.8672C50.5781 55.5911 48.013 53.7552 45.8516 51.3594C43.6901 48.9375 42.0104 46.0078 40.8125 42.5703C39.6406 39.1328 39.0547 35.2526 39.0547 30.9297V28.2344C39.0547 23.8854 39.6406 20.0052 40.8125 16.5938C42.0104 13.1562 43.6771 10.2266 45.8125 7.80469C47.9479 5.38281 50.5 3.53385 53.4688 2.25781C56.4375 0.981771 59.7057 0.34375 63.2734 0.34375C66.8672 0.34375 70.1354 0.981771 73.0781 2.25781C76.0469 3.53385 78.612 5.38281 80.7734 7.80469C82.9349 10.2266 84.6016 13.1562 85.7734 16.5938C86.9453 20.0052 87.5312 23.8854 87.5312 28.2344ZM75.6953 30.9297V28.1562C75.6953 25.1354 75.4089 22.4792 74.8359 20.1875C74.2891 17.8958 73.4818 15.9688 72.4141 14.4062C71.3724 12.8438 70.0833 11.6719 68.5469 10.8906C67.0104 10.0833 65.2526 9.67969 63.2734 9.67969C61.2943 9.67969 59.5365 10.0833 58 10.8906C56.4635 11.6719 55.1745 12.8438 54.1328 14.4062C53.0911 15.9688 52.2969 17.8958 51.75 20.1875C51.2031 22.4792 50.9297 25.1354 50.9297 28.1562V30.9297C50.9297 33.9245 51.2031 36.5807 51.75 38.8984C52.2969 41.1901 53.0911 43.1302 54.1328 44.7188C55.2005 46.2812 56.5026 47.4661 58.0391 48.2734C59.6016 49.0807 61.3724 49.4844 63.3516 49.4844C65.3307 49.4844 67.0755 49.0807 68.5859 48.2734C70.1224 47.4661 71.4115 46.2812 72.4531 44.7188C73.5208 43.1302 74.3281 41.1901 74.875 38.8984C75.4219 36.5807 75.6953 33.9245 75.6953 30.9297Z" fill="url(#paint0_linear_1_3)"/>
<defs>
<linearGradient id="paint0_linear_1_3" x1="43" y1="-19" x2="43" y2="81" gradientUnits="userSpaceOnUse">
<stop offset="0.185" stop-color="#8A00EC"/>
<stop offset="0.92" stop-color="#D20097"/>
</linearGradient>
</defs>
</svg>
